<svg width="512" height="512" viewBox="0 0 512 512" fill="none" xmlns="http://www.w3.org/2000/svg">
  <rect width="512" height="512" rx="256" fill="#000000"/>
  <path d="M355.904 202.256C355.904 202.256 355.608 201.992 355.432 201.88C346.992 197.736 339.4 192.184 333.064 185.464C323.432 175.304 318.088 165.432 314.792 155.728C314.792 155.416 314.568 155.112 314.568 154.8V217.76C314.568 217.76 314.568 217.912 314.568 217.984V217.992C314.568 218.064 314.568 218.064 314.568 218.136V218.144V309.048C314.568 336.992 291.752 359.792 263.8 359.792C235.848 359.792 213.032 336.992 213.032 309.048C213.032 281.104 235.848 258.304 263.8 258.304C263.8 258.304 264.528 258.304 265.096 258.376V258.304C265.24 258.304 265.384 258.304 265.528 258.304V308.824C265.024 308.68 264.376 308.608 263.8 308.608C261.952 308.608 260.176 308.968 258.48 309.704C252.416 312.16 248.288 318.016 248.288 324.944C248.288 334.376 255.936 342.024 265.384 342.024C274.832 342.024 282.48 334.376 282.48 324.944V242.456V152.416C282.48 152.416 282.48 152.336 282.48 152.272V152.264H314.568C314.568 152.632 314.712 153 314.792 153.368C318.232 167.872 325.824 180.008 337.4 189.6C338.248 190.328 339.104 191.048 339.976 191.76C339.976 191.76 340.112 191.84 340.176 191.904V229.664C331.736 227.504 322.648 226.408 313.336 226.408V226.336C277.136 226.336 247.84 255.64 247.84 291.824C247.84 310.808 255.856 327.84 268.752 339.472C279.472 349.048 293.368 354.944 308.736 354.944C344.936 354.944 374.232 325.64 374.232 289.456V231.528C389.056 241.152 406.328 246.776 424.3 246.776V214.688C400.2 214.688 378.016 202.256 355.904 202.256Z" fill="white"/>
  <path d="M355.904 202.256C378.016 202.256 400.2 214.688 424.3 214.688V182.6C406.328 182.6 389.056 177.032 374.232 167.36V289.448C374.232 325.64 344.928 354.936 308.736 354.936C293.368 354.936 279.472 349.04 268.752 339.464C255.856 327.832 247.84 310.8 247.84 291.824C247.84 255.632 277.136 226.328 313.328 226.328V226.4C322.64 226.4 331.736 227.496 340.168 229.656V191.896C327.592 184.656 318.232 172.52 314.784 158.008C314.704 157.64 314.56 157.272 314.56 156.904H282.472V242.448V324.936C282.472 334.368 274.824 342.016 265.376 342.016C255.928 342.016 248.28 334.368 248.28 324.936C248.28 318.008 252.408 312.152 258.472 309.696C260.168 308.96 261.944 308.6 263.792 308.6C264.368 308.6 265.016 308.672 265.52 308.816V258.296C235.848 259.032 213.032 281.096 213.032 309.04C213.032 336.984 235.848 359.784 263.8 359.784C291.752 359.784 314.568 336.984 314.568 309.04V218.136V218.128V218.056C314.568 217.984 314.568 217.984 314.568 217.912V217.904V154.944C317.864 164.648 323.208 174.52 332.84 184.68C339.176 191.4 346.768 196.952 355.208 201.096C355.384 201.208 355.68 201.472 355.904 201.472L355.904 202.256Z" fill="url(#gradient)" />
  <defs>
    <linearGradient id="gradient" x1="318.666" y1="152.8" x2="318.666" y2="359.584" gradientUnits="userSpaceOnUse">
      <stop stop-color="#25F4EE"/>
      <stop offset="1" stop-color="#FE2C55"/>
    </linearGradient>
  </defs>
</svg> 